<?xml version="1.0" encoding="UTF-8"?>
<svg id="Layer_1" data-name="Layer 1" xmlns="http://www.w3.org/2000/svg" viewBox="0 0 1822.07 2170.25">
  <defs>
    <style>
      .cls-1 {
        fill: #fdc643;
      }

      .cls-2 {
        font-family: Rockwell-Regular, Rockwell;
        font-size: 72px;
      }

      .cls-2, .cls-3, .cls-4, .cls-5, .cls-6 {
        fill: #fff;
      }

      .cls-7 {
        fill: #003a4f;
      }

      .cls-8 {
        fill: #13dcff;
      }

      .cls-8, .cls-3, .cls-4, .cls-5, .cls-9, .cls-6, .cls-10, .cls-11, .cls-12, .cls-13, .cls-14 {
        stroke: #000;
        stroke-miterlimit: 10;
      }

      .cls-8, .cls-14 {
        stroke-width: 16px;
      }

      .cls-3 {
        stroke-width: 17px;
      }

      .cls-4 {
        stroke-width: 15px;
      }

      .cls-15, .cls-9, .cls-13 {
        fill: #111;
      }

      .cls-9 {
        stroke-width: 7px;
      }

      .cls-16 {
        fill: #333e48;
      }

      .cls-6 {
        opacity: .39;
      }

      .cls-17 {
        fill: #ddae3c;
      }

      .cls-10, .cls-11 {
        fill: none;
      }

      .cls-18 {
        font-family: Nevera-Regular, Nevera;
        font-size: 355px;
      }

      .cls-11 {
        stroke-width: 21px;
      }

      .cls-19 {
        fill: #002726;
      }

      .cls-20 {
        fill: #00759d;
      }

      .cls-21 {
        fill: #006867;
      }
    </style>
  </defs>
  <polygon class="cls-5" points=".5 .5 1821.57 .5 1821.57 1580.8 908.84 2088.6 .5 1620.2 .5 .5"/>
  <rect class="cls-4" x="92.43" y="79.3" width="1632.83" height="332.69"/>
  <g>
    <path class="cls-8" d="M92.43,451.39v1138.17c114.44,20.5,277.71,63,455.27,157.59,164.43,87.59,284.09,189.48,363.34,268.2,81.6-82.9,206.85-192.05,380.85-285.71,167.53-90.18,321.72-134.52,433.38-157.59V451.39c-113.98,9.8-280.01,37.42-464.02,118.19-155.21,68.13-272.25,151.7-352.39,218.88-71.06-67.05-183.09-157-339.26-227.63-194.35-87.91-369.9-106.49-477.15-109.44Z"/>
    <path class="cls-14" d="M911.04,2016.05l-.36-.35c-107.48-106.77-229.69-196.98-363.22-268.11-142.65-75.99-295.78-129-455.12-157.54l-.41-.07V450.87h.51c68.99,1.91,138.3,9.6,206,22.88,93.56,18.35,184.86,47.49,271.35,86.62,124.82,56.46,238.91,132.98,339.07,227.42,106.66-89.34,225.14-162.9,352.17-218.67,147.22-64.62,303.4-104.4,464.18-118.23l.54-.05v1121.61l-.4.08c-151.42,31.3-297.19,84.3-433.24,157.54-140.57,75.67-268.66,171.77-380.73,285.62l-.35.36ZM715.84,639.81c-29.45-18.45-59.68-35.65-90.64-51.57M625.2,588.24c-18.36-9.44-36.97-18.43-55.83-26.96-86.42-39.09-177.65-68.21-271.13-86.55-67.47-13.23-136.55-20.92-205.32-22.83v1137.23c159.3,28.58,312.38,81.59,455,157.57,133.47,71.1,255.63,161.24,363.1,267.93,112.05-113.77,240.1-209.8,380.61-285.44,136.03-73.22,281.74-126.23,433.12-157.56V451.93c-160.49,13.86-316.36,53.6-463.32,118.11-127.08,55.78-245.6,129.4-352.27,218.8l-.34.29-.32-.31c-59.52-56.16-123.96-105.98-192.66-149.02"/>
  </g>
  <g>
    <g>
      <rect class="cls-1" x="525.54" y="1228.52" width="189.59" height="429.28"/>
      <path class="cls-17" d="M469.61,1228.52h55.94v429.28h-4.02c-28.65,0-51.92-23.26-51.92-51.92v-377.36h0Z"/>
    </g>
    <g>
      <rect class="cls-21" x="844.21" y="1085.42" width="189.59" height="572.38"/>
      <rect class="cls-19" x="788.26" y="1085.42" width="55.94" height="572.38"/>
    </g>
    <g>
      <rect class="cls-20" x="1162.87" y="950.42" width="189.59" height="707.38"/>
      <rect class="cls-7" x="1106.93" y="950.42" width="55.94" height="707.38"/>
    </g>
    <polygon class="cls-16" points="1097.11 719.25 1147.88 770.02 1045.63 872.27 970.16 796.8 734.32 1032.64 665.54 963.86 475.33 1154.08 503.17 1181.92 665.54 1019.55 734.32 1088.32 970.16 852.48 1045.63 927.95 1175.73 797.86 1226.49 848.63 1226.49 719.25 1097.11 719.25"/>
  </g>
  <path class="cls-13" d="M186.84,518.07c4.79-5.54,13.88-4.59,20.76-3.42,223.93,35.26,451.48,143.72,619.85,295.08,4.96,4.39,9.92,9,13.56,14.54,4.46,6.63,9.23,19.37,3.31,24.7-5.08,3.03-12.11-3.87-16.4-7.28-13.16-11.59-27.3-23.65-41.03-34.72-94.96-77.23-204-141.02-321.17-185.93-90.45-34.77-169.08-52.85-258.04-66.51-4.79-.83-9.72-1.93-13.97-4.15-11.64-5.35-14.89-22.95-6.97-32.22l.09-.1Z"/>
  <path class="cls-12" d="M618.71,593.48c-148.07,95.44-246.12,261.8-246.12,451.07,0,296.16,240.09,536.25,536.25,536.25s536.26-240.09,536.26-536.25-240.09-536.25-536.26-536.25c-100.27,0-194.11,27.52-274.39,75.42M634.45,583.72c-5.31,3.17-10.55,6.42-15.74,9.76M908.84,1522c-263.69,0-477.45-213.76-477.45-477.45s213.76-477.46,477.45-477.46,477.46,213.77,477.46,477.46-213.77,477.45-477.46,477.45Z"/>
  <path class="cls-6" d="M1386.3,1044.55c0,263.69-213.77,477.45-477.46,477.45s-477.45-213.76-477.45-477.45,213.76-477.46,477.45-477.46,477.46,213.77,477.46,477.46Z"/>
  <path class="cls-12" d="M908.84,567.09c-263.69,0-477.45,213.77-477.45,477.46s213.76,477.45,477.45,477.45,477.46-213.76,477.46-477.45-213.77-477.46-477.46-477.46ZM908.84,1494.15c-248.31,0-449.6-201.29-449.6-449.6s201.29-449.61,449.6-449.61,449.61,201.3,449.61,449.61-201.3,449.6-449.61,449.6Z"/>
  <path class="cls-10" d="M1358.45,1044.55c0,248.31-201.3,449.6-449.61,449.6s-449.6-201.29-449.6-449.6,201.29-449.61,449.6-449.61,449.61,201.3,449.61,449.61Z"/>
  <path class="cls-10" d="M1358.45,1044.55c0,248.31-201.3,449.6-449.61,449.6s-449.6-201.29-449.6-449.6,201.29-449.61,449.6-449.61,449.61,201.3,449.61,449.61Z"/>
  <rect class="cls-15" x="647.94" y="407.18" width="526.2" height="87.33"/>
  <path class="cls-3" d="M1153.23,1522l55.48,79.27,113.82-79.27-56.76-77.24c-13.66,13.24-30.69,27.89-51.38,42.24-22.07,15.31-43.05,26.63-61.16,35Z"/>
  <path class="cls-9" d="M1209.56,1600.68c-.52.36-1.05.7-1.59,1.02-3.55,2.12-11.25,7.49-15.82,17.67-1.2,2.67-2,5.26-2.52,7.68-1.42,6.59-.06,13.48,3.59,19.15,107.73,167.61,215.45,335.22,323.18,502.82,11.38,17.7,34.84,23.01,52.73,11.94l122.33-75.68c18.24-11.29,23.57-35.41,11.77-53.33l-335.19-509.14c-5.85-8.89-16.59-13.41-26.97-11.08-.1.02-.19.04-.29.07-8.45,1.97-14.16,6.37-17.08,9.07-.89.82-1.82,1.58-2.82,2.27-37.1,25.84-74.2,51.68-111.31,77.53Z"/>
  <text class="cls-18" transform="translate(86.28 390.2)"><tspan x="0" y="0">B I R S T</tspan></text>
  <path class="cls-11" d="M140.9,451.9v1106.57c108.78,27.62,314.85,90.6,484.3,203.91,151.23,101.13,219.74,169.12,285.82,252.25"/>
  <path class="cls-11" d="M1671.54,463.76v1087.06c-107.73,27.41-311.81,101.03-479.63,213.48-149.77,100.36-217.62,167.83-283.06,250.34"/>
  <text class="cls-2" transform="translate(679.88 477.58)"><tspan x="0" y="0">SINCE : 2025</tspan></text>
  <path class="cls-5" d="M667.29,757.95c-7.72,5.13-15.36,10.76-22.87,16.94-79.75,65.59-106.39,161.42-116.22,223.65-1.7,35-.18,81.13,12.09,133.37,20.38,86.8,60.72,149.25,88.23,185.03,17.71,16.85,44.3,16.52,58.96,2.09,11.33-11.15,14.43-29.65,7.44-46.07-44.12-103.68-56.78-176.6-50.51-249.88,1.69-19.72,7.39-48.36,26.62-82.21,59.22-140.99,61.05-183.37,47.76-191.82-9.51-6.04-35.78-1.57-51.51,8.89Z"/>
</svg>